<svg width="375" height="375" viewBox="0 0 375 375" fill="none" xmlns="http://www.w3.org/2000/svg">
<path d="M344.058 207.506C327.49 207.506 314.058 220.938 314.058 237.506V314.115H60.058V237.506C60.058 220.938 46.626 207.506 30.058 207.506C13.49 207.506 0.0580139 220.938 0.0580139 237.506V344.115C0.0580139 360.683 13.49 374.115 30.058 374.115H344.058C360.626 374.115 374.058 360.683 374.058 344.115V237.506C374.058 220.938 360.626 207.506 344.058 207.506Z" fill="white"/>
<path d="M123.57 135.915L157.058 102.427V214.202C157.058 230.77 170.49 244.202 187.058 244.202C203.626 244.202 217.058 230.77 217.058 214.202V102.426L250.546 135.914C256.403 141.772 264.081 144.701 271.759 144.701C279.437 144.701 287.114 141.772 292.972 135.914C304.688 124.198 304.688 105.204 292.972 93.488L208.271 8.78799C196.556 -2.92901 177.56 -2.92901 165.845 8.78799L81.144 93.489C69.428 105.205 69.428 124.199 81.144 135.915C92.859 147.631 111.855 147.631 123.57 135.915Z" fill="white"/>
</svg>
