<svg width="55" height="55" viewBox="0 0 55 55" fill="none" xmlns="http://www.w3.org/2000/svg">
<path d="M27.5 0C12.32 0 0 12.32 0 27.5C0 42.68 12.32 55 27.5 55C42.68 55 55 42.68 55 27.5C55 12.32 42.68 0 27.5 0ZM27.5 8.25C32.065 8.25 35.75 11.935 35.75 16.5C35.75 21.065 32.065 24.75 27.5 24.75C22.935 24.75 19.25 21.065 19.25 16.5C19.25 11.935 22.935 8.25 27.5 8.25ZM27.5 47.3C20.625 47.3 14.5475 43.78 11 38.445C11.0825 32.9725 22 29.975 27.5 29.975C32.9725 29.975 43.9175 32.9725 44 38.445C40.4525 43.78 34.375 47.3 27.5 47.3Z" fill="#C4C4C4"/>
</svg>
