<svg width="165" height="180" viewBox="0 0 165 180" fill="none" xmlns="http://www.w3.org/2000/svg">
<path d="M1.95281 157.126H15.0828V160.012H6.00881V164.146H14.2248V167.032H6.00881V174H1.95281V157.126ZM17.77 156.866H21.566V159.934H17.77V156.866ZM17.77 161.416H21.566V174H17.77V161.416ZM25.0038 161.416H28.7478V162.95C29.0425 161.754 30.3858 161.156 32.7778 161.156C34.3898 161.156 35.5165 161.451 36.1578 162.04C36.8165 162.612 37.1458 163.522 37.1458 164.77V174H33.3498V165.264C33.3498 164.779 33.2978 164.415 33.1938 164.172C33.1072 163.929 32.9165 163.756 32.6218 163.652C32.3445 163.548 31.9112 163.496 31.3218 163.496C30.5765 163.496 30.0305 163.548 29.6838 163.652C29.3372 163.739 29.1032 163.903 28.9818 164.146C28.8605 164.389 28.7998 164.761 28.7998 165.264V174H25.0038V161.416ZM44.0287 174.26C42.8501 174.26 41.9661 174.156 41.3767 173.948C40.8047 173.723 40.3974 173.333 40.1547 172.778C39.9294 172.206 39.8167 171.357 39.8167 170.23C39.8167 169.225 39.9381 168.436 40.1807 167.864C40.4407 167.292 40.8481 166.885 41.4027 166.642C41.9747 166.382 42.7547 166.252 43.7427 166.252H48.0067V165.394C48.0067 164.857 47.9287 164.458 47.7727 164.198C47.6341 163.938 47.3654 163.756 46.9667 163.652C46.5854 163.548 46.0047 163.496 45.2247 163.496C44.1501 163.496 42.6767 163.6 40.8047 163.808V161.416C42.1741 161.243 43.7774 161.156 45.6147 161.156C47.2267 161.156 48.4661 161.277 49.3327 161.52C50.2167 161.763 50.8494 162.179 51.2307 162.768C51.6121 163.357 51.8027 164.215 51.8027 165.342V174H48.0847V172.856C47.7901 173.359 47.3914 173.714 46.8887 173.922C46.3861 174.147 45.4327 174.26 44.0287 174.26ZM45.5107 171.894C46.2734 171.894 46.8194 171.868 47.1487 171.816C47.3914 171.781 47.5561 171.729 47.6427 171.66C47.7467 171.591 47.8334 171.478 47.9027 171.322C47.9721 171.201 48.0067 171.019 48.0067 170.776V168.332H45.4067C44.8174 168.332 44.4014 168.375 44.1587 168.462C43.9161 168.531 43.7514 168.687 43.6647 168.93C43.5781 169.155 43.5347 169.563 43.5347 170.152C43.5347 170.724 43.5781 171.123 43.6647 171.348C43.7514 171.573 43.9161 171.721 44.1587 171.79C44.4187 171.859 44.8694 171.894 45.5107 171.894ZM55.1425 161.416H58.8865V162.95C59.1812 161.754 60.5245 161.156 62.9165 161.156C64.5285 161.156 65.6552 161.451 66.2965 162.04C66.9552 162.612 67.2845 163.522 67.2845 164.77V174H63.4885V165.264C63.4885 164.779 63.4365 164.415 63.3325 164.172C63.2458 163.929 63.0552 163.756 62.7605 163.652C62.4832 163.548 62.0498 163.496 61.4605 163.496C60.7152 163.496 60.1692 163.548 59.8225 163.652C59.4758 163.739 59.2418 163.903 59.1205 164.146C58.9992 164.389 58.9385 164.761 58.9385 165.264V174H55.1425V161.416ZM75.9094 179.72C74.9387 179.72 74.1501 179.521 73.5434 179.122L74.1154 177.926C74.6354 178.238 75.1727 178.394 75.7274 178.394C76.5421 178.394 76.9494 178.091 76.9494 177.484C76.9494 176.825 76.2994 176.496 74.9994 176.496H73.9594L74.2714 176.002C74.3407 175.898 74.4274 175.759 74.5314 175.586C74.6354 175.43 74.7741 175.239 74.9474 175.014L75.4674 174.234C74.7047 174.217 74.0461 174.147 73.4914 174.026C72.9541 173.905 72.4254 173.705 71.9054 173.428C70.7961 172.839 70.2414 171.669 70.2414 169.918V165.732C70.2414 164.588 70.5014 163.635 71.0214 162.872C71.2121 162.595 71.4894 162.343 71.8534 162.118C72.2347 161.875 72.6161 161.685 72.9974 161.546C73.3094 161.442 73.7254 161.355 74.2454 161.286C74.7654 161.217 75.2247 161.173 75.6234 161.156H77.0014C77.9721 161.156 79.2461 161.312 80.8234 161.624V164.12C79.0381 163.704 77.6687 163.496 76.7154 163.496C74.9647 163.496 74.0894 164.085 74.0894 165.264V169.892C74.0894 171.227 75.0514 171.894 76.9754 171.894C77.9114 171.894 79.2547 171.703 81.0054 171.322V173.818C79.6361 174.061 78.3881 174.199 77.2614 174.234L76.5074 175.3C77.2701 175.352 77.8767 175.543 78.3274 175.872C78.7954 176.219 79.0294 176.713 79.0294 177.354C79.0294 178.099 78.7261 178.68 78.1194 179.096C77.5127 179.512 76.7761 179.72 75.9094 179.72ZM86.7104 174.26C85.5317 174.26 84.6477 174.156 84.0584 173.948C83.4864 173.723 83.079 173.333 82.8364 172.778C82.611 172.206 82.4984 171.357 82.4984 170.23C82.4984 169.225 82.6197 168.436 82.8624 167.864C83.1224 167.292 83.5297 166.885 84.0844 166.642C84.6564 166.382 85.4364 166.252 86.4244 166.252H90.6884V165.394C90.6884 164.857 90.6104 164.458 90.4544 164.198C90.3157 163.938 90.047 163.756 89.6484 163.652C89.267 163.548 88.6864 163.496 87.9064 163.496C86.8317 163.496 85.3584 163.6 83.4864 163.808V161.416C84.8557 161.243 86.459 161.156 88.2964 161.156C89.9084 161.156 91.1477 161.277 92.0144 161.52C92.8984 161.763 93.531 162.179 93.9124 162.768C94.2937 163.357 94.4844 164.215 94.4844 165.342V174H90.7664V172.856C90.4717 173.359 90.073 173.714 89.5704 173.922C89.0677 174.147 88.1144 174.26 86.7104 174.26ZM88.1924 171.894C88.955 171.894 89.501 171.868 89.8304 171.816C90.073 171.781 90.2377 171.729 90.3244 171.66C90.4284 171.591 90.515 171.478 90.5844 171.322C90.6537 171.201 90.6884 171.019 90.6884 170.776V168.332H88.0884C87.499 168.332 87.083 168.375 86.8404 168.462C86.5977 168.531 86.433 168.687 86.3464 168.93C86.2597 169.155 86.2164 169.563 86.2164 170.152C86.2164 170.724 86.2597 171.123 86.3464 171.348C86.433 171.573 86.5977 171.721 86.8404 171.79C87.1004 171.859 87.551 171.894 88.1924 171.894ZM102.53 174.26C101.178 174.26 99.5228 174.13 97.5642 173.87V171.348C99.9735 171.712 101.646 171.894 102.582 171.894C103.379 171.894 103.969 171.816 104.35 171.66C104.731 171.504 104.922 171.218 104.922 170.802V170.022C104.922 169.589 104.801 169.285 104.558 169.112C104.315 168.921 103.839 168.826 103.128 168.826H101.49C100.155 168.826 99.1242 168.566 98.3962 168.046C97.6682 167.509 97.3042 166.729 97.3042 165.706V164.172C97.3042 163.08 97.8242 162.309 98.8642 161.858C99.9042 161.39 101.473 161.156 103.57 161.156C104.402 161.156 105.893 161.234 108.042 161.39V163.808C105.338 163.6 103.813 163.496 103.466 163.496C102.443 163.496 101.776 163.565 101.464 163.704C101.187 163.86 101.048 164.146 101.048 164.562V165.238C101.048 165.463 101.161 165.663 101.386 165.836C101.611 165.992 101.941 166.07 102.374 166.07H104.038C107.123 166.07 108.666 167.075 108.666 169.086V170.672C108.666 171.279 108.553 171.807 108.328 172.258C108.103 172.709 107.808 173.064 107.444 173.324C107.097 173.567 106.647 173.757 106.092 173.896C105.555 174.035 104.991 174.13 104.402 174.182C103.865 174.234 103.241 174.26 102.53 174.26ZM122.105 157.126H127.045L133.129 174H129.021L127.513 169.554H121.351L119.869 174H115.865L122.105 157.126ZM126.629 166.85L124.497 160.506H124.393L122.261 166.85H126.629ZM134.844 161.416H138.432V162.664C138.657 162.109 139.099 161.719 139.758 161.494C140.416 161.269 141.396 161.156 142.696 161.156C143.788 161.156 144.663 161.243 145.322 161.416C145.998 161.589 146.509 161.867 146.856 162.248C147.185 162.629 147.41 163.054 147.532 163.522C147.653 163.973 147.714 164.597 147.714 165.394V169.528C147.714 170.776 147.532 171.738 147.168 172.414C146.804 173.09 146.24 173.567 145.478 173.844C144.732 174.121 143.71 174.26 142.41 174.26C141.162 174.26 140.26 174.156 139.706 173.948C139.151 173.74 138.796 173.333 138.64 172.726V179.408H134.844V161.416ZM141.24 171.894C141.985 171.894 142.548 171.842 142.93 171.738C143.311 171.634 143.571 171.452 143.71 171.192C143.848 170.932 143.918 170.542 143.918 170.022V165.368C143.918 164.796 143.857 164.389 143.736 164.146C143.614 163.886 143.372 163.713 143.008 163.626C142.644 163.539 142.046 163.496 141.214 163.496C140.503 163.496 139.957 163.557 139.576 163.678C139.212 163.799 138.96 163.99 138.822 164.25C138.7 164.51 138.64 164.883 138.64 165.368V170.022C138.64 170.542 138.7 170.932 138.822 171.192C138.96 171.452 139.212 171.634 139.576 171.738C139.94 171.842 140.494 171.894 141.24 171.894ZM150.687 161.416H154.275V162.664C154.501 162.109 154.943 161.719 155.601 161.494C156.26 161.269 157.239 161.156 158.539 161.156C159.631 161.156 160.507 161.243 161.165 161.416C161.841 161.589 162.353 161.867 162.699 162.248C163.029 162.629 163.254 163.054 163.375 163.522C163.497 163.973 163.557 164.597 163.557 165.394V169.528C163.557 170.776 163.375 171.738 163.011 172.414C162.647 173.09 162.084 173.567 161.321 173.844C160.576 174.121 159.553 174.26 158.253 174.26C157.005 174.26 156.104 174.156 155.549 173.948C154.995 173.74 154.639 173.333 154.483 172.726V179.408H150.687V161.416ZM157.083 171.894C157.829 171.894 158.392 171.842 158.773 171.738C159.155 171.634 159.415 171.452 159.553 171.192C159.692 170.932 159.761 170.542 159.761 170.022V165.368C159.761 164.796 159.701 164.389 159.579 164.146C159.458 163.886 159.215 163.713 158.851 163.626C158.487 163.539 157.889 163.496 157.057 163.496C156.347 163.496 155.801 163.557 155.419 163.678C155.055 163.799 154.804 163.99 154.665 164.25C154.544 164.51 154.483 164.883 154.483 165.368V170.022C154.483 170.542 154.544 170.932 154.665 171.192C154.804 171.452 155.055 171.634 155.419 171.738C155.783 171.842 156.338 171.894 157.083 171.894Z" fill="white"/>
<mask id="path-2-inside-1" fill="white">
<path fill-rule="evenodd" clip-rule="evenodd" d="M37.25 0C36.0074 0 35 1.00736 35 2.25V12.707V36.4268V130.75C35 131.993 36.0074 133 37.25 133H47.1513C48.3939 133 49.4013 131.993 49.4013 130.75V66.9236H57.0255V130.75C57.0255 131.993 58.0328 133 59.2755 133H69.1768C70.4194 133 71.4268 131.993 71.4268 130.75V66.9236H121.739C132.785 66.9236 141.739 57.9693 141.739 46.9236V43.2038H71.4268V36.4268H121.739C132.785 36.4268 141.739 27.4724 141.739 16.4267V12.707L71.4268 12.707V2.25C71.4268 1.00736 70.4194 0 69.1768 0H59.2755C58.0328 0 57.0255 1.00736 57.0255 2.25V12.707H49.4013V2.25C49.4013 1.00736 48.3939 0 47.1513 0H37.25ZM49.4013 36.4268V43.2038H57.0255V36.4268H49.4013Z"/>
</mask>
<path fill-rule="evenodd" clip-rule="evenodd" d="M37.25 0C36.0074 0 35 1.00736 35 2.25V12.707V36.4268V130.75C35 131.993 36.0074 133 37.25 133H47.1513C48.3939 133 49.4013 131.993 49.4013 130.75V66.9236H57.0255V130.75C57.0255 131.993 58.0328 133 59.2755 133H69.1768C70.4194 133 71.4268 131.993 71.4268 130.75V66.9236H121.739C132.785 66.9236 141.739 57.9693 141.739 46.9236V43.2038H71.4268V36.4268H121.739C132.785 36.4268 141.739 27.4724 141.739 16.4267V12.707L71.4268 12.707V2.25C71.4268 1.00736 70.4194 0 69.1768 0H59.2755C58.0328 0 57.0255 1.00736 57.0255 2.25V12.707H49.4013V2.25C49.4013 1.00736 48.3939 0 47.1513 0H37.25ZM49.4013 36.4268V43.2038H57.0255V36.4268H49.4013Z" fill="#F9C33C"/>
<path d="M49.4013 66.9236V64.4236H46.9013V66.9236H49.4013ZM57.0255 66.9236H59.5255V64.4236H57.0255V66.9236ZM71.4268 66.9236V64.4236H68.9268V66.9236H71.4268ZM141.739 43.2038H144.239V40.7038H141.739V43.2038ZM71.4268 43.2038H68.9268V45.7038H71.4268V43.2038ZM71.4268 36.4268V33.9268H68.9268V36.4268H71.4268ZM141.739 12.707H144.239V10.207H141.739V12.707ZM71.4268 12.707H68.9268V15.207H71.4268V12.707ZM57.0255 12.707V15.207H59.5255V12.707H57.0255ZM49.4013 12.707H46.9013V15.207H49.4013V12.707ZM49.4013 36.4268V33.9268H46.9013V36.4268H49.4013ZM49.4013 43.2038H46.9013V45.7038H49.4013V43.2038ZM57.0255 43.2038V45.7038H59.5255V43.2038H57.0255ZM57.0255 36.4268H59.5255V33.9268H57.0255V36.4268ZM37.5 2.25C37.5 2.38807 37.3881 2.5 37.25 2.5V-2.5C34.6266 -2.5 32.5 -0.373354 32.5 2.25H37.5ZM37.5 12.707V2.25H32.5V12.707H37.5ZM37.5 36.4268V12.707H32.5V36.4268H37.5ZM37.5 130.75V36.4268H32.5V130.75H37.5ZM37.25 130.5C37.3881 130.5 37.5 130.612 37.5 130.75H32.5C32.5 133.373 34.6267 135.5 37.25 135.5V130.5ZM47.1513 130.5H37.25V135.5H47.1513V130.5ZM46.9013 130.75C46.9013 130.612 47.0132 130.5 47.1513 130.5V135.5C49.7746 135.5 51.9013 133.373 51.9013 130.75H46.9013ZM46.9013 66.9236V130.75H51.9013V66.9236H46.9013ZM57.0255 64.4236H49.4013V69.4236H57.0255V64.4236ZM59.5255 130.75V66.9236H54.5255V130.75H59.5255ZM59.2755 130.5C59.4135 130.5 59.5255 130.612 59.5255 130.75H54.5255C54.5255 133.373 56.6521 135.5 59.2755 135.5V130.5ZM69.1768 130.5H59.2755V135.5H69.1768V130.5ZM68.9268 130.75C68.9268 130.612 69.0387 130.5 69.1768 130.5V135.5C71.8001 135.5 73.9268 133.373 73.9268 130.75H68.9268ZM68.9268 66.9236V130.75H73.9268V66.9236H68.9268ZM121.739 64.4236H71.4268V69.4236H121.739V64.4236ZM139.239 46.9236C139.239 56.5886 131.404 64.4236 121.739 64.4236V69.4236C134.165 69.4236 144.239 59.35 144.239 46.9236H139.239ZM139.239 43.2038V46.9236H144.239V43.2038H139.239ZM71.4268 45.7038H141.739V40.7038H71.4268V45.7038ZM68.9268 36.4268V43.2038H73.9268V36.4268H68.9268ZM121.739 33.9268H71.4268V38.9268H121.739V33.9268ZM139.239 16.4267C139.239 26.0917 131.404 33.9268 121.739 33.9268V38.9268C134.165 38.9268 144.239 28.8532 144.239 16.4267H139.239ZM139.239 12.707V16.4267H144.239V12.707H139.239ZM71.4268 15.207L141.739 15.207V10.207L71.4268 10.207V15.207ZM68.9268 2.25V12.707H73.9268V2.25H68.9268ZM69.1768 2.5C69.0387 2.5 68.9268 2.38807 68.9268 2.25H73.9268C73.9268 -0.373354 71.8001 -2.5 69.1768 -2.5V2.5ZM59.2755 2.5H69.1768V-2.5H59.2755V2.5ZM59.5255 2.25C59.5255 2.38807 59.4135 2.5 59.2755 2.5V-2.5C56.6521 -2.5 54.5255 -0.373353 54.5255 2.25H59.5255ZM59.5255 12.707V2.25H54.5255V12.707H59.5255ZM49.4013 15.207H57.0255V10.207H49.4013V15.207ZM46.9013 2.25V12.707H51.9013V2.25H46.9013ZM47.1513 2.5C47.0132 2.5 46.9013 2.38807 46.9013 2.25H51.9013C51.9013 -0.373353 49.7746 -2.5 47.1513 -2.5V2.5ZM37.25 2.5H47.1513V-2.5H37.25V2.5ZM46.9013 36.4268V43.2038H51.9013V36.4268H46.9013ZM49.4013 45.7038H57.0255V40.7038H49.4013V45.7038ZM59.5255 43.2038V36.4268H54.5255V43.2038H59.5255ZM57.0255 33.9268H49.4013V38.9268H57.0255V33.9268Z" fill="white" mask="url(#path-2-inside-1)"/>
</svg>
