<svg width="1664" height="1380" viewBox="0 0 1664 1380" fill="none" xmlns="http://www.w3.org/2000/svg">
<path fill-rule="evenodd" clip-rule="evenodd" d="M972.743 134.488C973.433 133.455 974.83 133.177 975.864 133.867L1101.98 218.079C1103.01 218.769 1103.29 220.166 1102.6 221.2L1029.77 330.273L1663.78 753.627L1536.6 944.09C1530.47 953.276 1518.05 955.75 1508.86 949.616L891.484 537.368L851.974 596.538L1485.99 1019.89L1358.81 1210.36C1352.67 1219.54 1340.25 1222.02 1331.07 1215.88L713.688 803.634L329.715 1378.67C329.025 1379.7 327.628 1379.98 326.594 1379.29L200.478 1295.08C199.445 1294.39 199.167 1292.99 199.857 1291.96L583.83 716.923L515.082 671.017L653.367 463.921L722.116 509.827L761.626 450.657L692.877 404.751L131.108 1246.05C130.418 1247.09 129.02 1247.37 127.987 1246.68L1.87119 1162.46C0.837762 1161.77 0.559386 1160.38 1.24946 1159.34L774.136 1.87149C774.826 0.838058 776.223 0.559697 777.257 1.24976L903.373 85.462C904.406 86.152 904.684 87.5492 903.994 88.5826L831.162 197.655L899.911 243.562L972.743 134.488Z" fill="url(#paint0_linear_364_571)" fill-opacity="0.2"/>
<defs>
<linearGradient id="paint0_linear_364_571" x1="546.899" y1="430.8" x2="1583.58" y2="1208.61" gradientUnits="userSpaceOnUse">
<stop stop-color="white"/>
<stop offset="1" stop-color="white" stop-opacity="0"/>
</linearGradient>
</defs>
</svg>
