<svg width="622" height="552" viewBox="0 0 622 552" fill="none" xmlns="http://www.w3.org/2000/svg">
<path fill-rule="evenodd" clip-rule="evenodd" d="M399.462 -134.305C400.152 -135.338 401.549 -135.616 402.582 -134.926L452.265 -101.751C453.298 -101.061 453.577 -99.6641 452.887 -98.6306L423.658 -54.8582L684.498 119.314L638.713 187.883C632.579 197.069 620.159 199.543 610.973 193.409L366.766 30.3432L350.511 54.6865L611.351 228.859L565.565 297.428C559.432 306.614 547.012 309.088 537.826 302.954L293.619 139.888L136.384 375.363C135.694 376.396 134.296 376.675 133.263 375.985L83.5803 342.81C82.5469 342.12 82.2685 340.722 82.9586 339.689L240.194 104.214L211.91 85.3276L268.802 0.12629L297.086 19.0125L313.341 -5.33076L285.057 -24.2171L54.6745 320.803C53.9844 321.836 52.5873 322.115 51.5538 321.424L1.87115 288.249C0.837717 287.559 0.559342 286.162 1.24942 285.129L317.753 -188.865C318.443 -189.898 319.84 -190.176 320.873 -189.486L370.556 -156.311C371.589 -155.621 371.868 -154.224 371.178 -153.191L341.949 -109.418L370.233 -90.5321L399.462 -134.305Z" fill="url(#paint0_linear)" fill-opacity="0.2"/>
<defs>
<linearGradient id="paint0_linear" x1="225" y1="-13.5" x2="651.5" y2="306.5" gradientUnits="userSpaceOnUse">
<stop stop-color="white"/>
<stop offset="1" stop-color="white" stop-opacity="0"/>
</linearGradient>
</defs>
</svg>
